<svg version="1" xmlns="http://www.w3.org/2000/svg" width="752" height="752" viewBox="0 0 564.000000 564.000000"><path d="M77.5 1.5C41.3 8.2 12.5 35 2.9 71c-3.2 12.2-3.2 33.8 0 46 11.3 42.6 48.5 71.2 92 70.8 36-.4 67.1-19.9 83.4-52.3 7.2-14.4 9.8-26.8 9.3-44.5-.5-14.8-2.7-24.6-8.6-36.9C166.8 28.7 144.3 9.9 117.5 3c-10-2.7-29.9-3.4-40-1.5zM457 .7c-39 6.4-69.9 34.8-78.6 72.1-1.6 6.9-2 10.9-2.9 32.2-.7 15.9-.8 17.2-2.4 27-6.9 41.8-25.7 69.4-55.6 81.2-2.7 1.1-5.7 2.1-6.5 2.3-.8.2-3.3.8-5.5 1.4-4.6 1.2-11.1 1.9-24.3 2.6-14.7.8-23.7 3.7-35 11.4-8.3 5.6-15.5 14-20.1 23.5-4.7 9.7-5.8 14.3-6.6 26.1-1 16.5-1.5 20.1-3.4 27.6C207.2 343 177.3 366 132 373c-4.1.6-8.6 1.3-9.9 1.5-1.4.3-9.3.7-17.5 1-24.5.9-28.7 1.5-40.8 5.6-24.1 8.2-42.9 24.8-54.4 48.2-2.3 4.8-4.3 8.9-4.2 9 0 .1-.6 2.2-1.3 4.7-.7 2.5-1.4 5.2-1.5 6-.1.8-.7 3.7-1.3 6.5-.9 4.4-.8 26.5.2 30.5.2.8.7 3.1 1.1 5 6.9 30.8 31.3 57.9 61.3 67.9 11.3 3.8 16.7 4.5 30.8 4.5 16.1-.1 25.4-2 38-7.8 24.7-11.4 42.4-31.2 50.9-56.8 3.6-10.6 4.2-15.5 5.1-39.8 1.2-32.2 7.8-57.2 20.1-76.6 4.3-6.8 5.9-8.8 12.3-15.1 15.2-15 34.9-22.3 60.5-22.4 12.1-.1 19.4.8 29.6 3.8 39.7 11.4 62.1 49.8 64.5 110.4 1.1 27.9 2.7 36.5 9.6 50.8 7.5 15.9 16.1 25.9 33.4 38.9 5.7 4.2 22.4 11.1 32.5 13.3 6.8 1.4 26.2 1.9 34.2.7 36.3-5.3 67.9-35.1 76.2-72.1 3.2-13.9 3-30.8-.3-43.7-8.9-34.1-35.9-60.7-69.5-68.5-7.3-1.7-12.6-2.2-32.3-3-52.1-2-87.4-18.5-104.1-48.5-3.4-6.1-7.9-18.7-8.8-24.6-.3-2.2-.7-5-1-6.4-.6-3.4-.5-23.4.1-28.9 2.4-21.4 14.1-41.7 31.5-54.8 14.1-10.6 38.8-19.8 59-21.9 3.6-.3 6.8-.8 7.2-1 .3-.2 7.3-.6 15.5-.9 19.9-.7 24.7-1.2 32.7-3 32-7.4 57.4-30.8 68-62.7 3.3-9.7 4.1-16.2 4-30.8-.2-29.1-14-56-37.9-73.8-9.7-7.1-24.6-14-34.5-15.7-1.8-.3-3.8-.9-4.3-1.2-1.1-.7-26-1.2-29.7-.6z"/><path d="M197.5 157.5c-18 3.4-30.8 17.8-31.8 36.1-1.2 19 11.3 35.1 30.8 40 3.7.9 13 .6 17.5-.6 11.1-3 20.2-10.6 25.3-20.9 2.9-6 3.1-7.4 3.1-16.1 0-11.8-2.3-18.2-9.4-26.3-8.9-9.9-22.5-14.6-35.5-12.2z"/></svg>